<?xml version="1.0" encoding="UTF-8"?>
<!DOCTYPE svg PUBLIC "-//W3C//DTD SVG 1.1//EN" "http://www.w3.org/Graphics/SVG/1.1/DTD/svg11.dtd">
<!-- Creator: CorelDRAW 2020 (64-Bit) -->
<svg xmlns="http://www.w3.org/2000/svg" xml:space="preserve" width="41.6667in" height="31.25in" version="1.1" style="shape-rendering:geometricPrecision; text-rendering:geometricPrecision; image-rendering:optimizeQuality; fill-rule:evenodd; clip-rule:evenodd"
viewBox="0 0 41666.66 31249.99"
 xmlns:xlink="http://www.w3.org/1999/xlink"
 xmlns:xodm="http://www.corel.com/coreldraw/odm/2003">
 <defs>
  <style type="text/css">
   <![CDATA[
    .fil0 {fill:#373F47}
    .fil2 {fill:silver}
    .fil1 {fill:silver;fill-rule:nonzero}
   ]]>
  </style>
 </defs>
 <g id="__x0023_Layer_x0020_2">
  <metadata id="CorelCorpID_0Corel-Layer"/>
  <g id="_1854480872880">
   <path class="fil0" d="M25420.05 2145.84c4848.34,0 9186.08,3026.15 9185.66,11924.69 0.03,6602.72 -7319.08,14379.54 -16566.75,14379.54 -3536.03,0 -9240.85,-2971.91 -7158.15,-7154.31 1264.62,-2539.54 7084.48,857.75 9147.16,-4446.27 693.67,-1783.8 -1252.34,-14438.81 5392.09,-14703.65zm1276.34 2716.51c1581.02,0 2862.71,1281.69 2862.71,2862.71 0,1581.02 -1281.69,2862.71 -2862.71,2862.71 -1581.02,0 -2862.71,-1281.69 -2862.71,-2862.71 0,-1581.02 1281.69,-2862.71 2862.71,-2862.71zm3304.74 7110.48c1215.2,0 2200.33,985.13 2200.33,2200.33 0,1215.2 -985.13,2200.33 -2200.33,2200.33 -1215.2,0 -2200.33,-985.13 -2200.33,-2200.33 0,-1215.2 985.13,-2200.33 2200.33,-2200.33zm-764.4 6968.54c956.48,0 1731.88,775.39 1731.88,1731.88 0,956.48 -775.39,1731.87 -1731.88,1731.87 -956.48,0 -1731.87,-775.39 -1731.87,-1731.87 0,-956.48 775.39,-1731.88 1731.87,-1731.88zm-4064.99 3561.79c847.7,0 1534.92,687.21 1534.92,1534.91 0,847.7 -687.22,1534.92 -1534.92,1534.92 -847.7,0 -1534.91,-687.22 -1534.91,-1534.92 0,-847.7 687.21,-1534.91 1534.91,-1534.91z"/>
   <g>
    <path class="fil1" d="M18961.75 27439.39c418.13,2158.17 4701.85,1599.86 4701.85,1599.86 0,0 -2020.29,-642.97 -1609.58,-1599.86 492.93,-1148.82 -692.22,-1546.17 -1546.17,-1546.17 -853.74,0 -1708.49,707.83 -1546.1,1546.17z"/>
    <path class="fil2" d="M7093.25 3833.4c498.89,-282.96 8280.14,12895.15 12420.2,19342.73l-2183.28 1238.34c-3412.31,-6860.36 -10817.55,-20251.75 -10236.93,-20581.07z"/>
    <polygon class="fil2" points="17590.7,24873.8 19773.98,23635.45 20536.92,24980.57 18353.65,26218.91 "/>
   </g>
  </g>
 </g>
</svg>
